<svg width="49" height="48" viewBox="0 0 49 48" fill="none" xmlns="http://www.w3.org/2000/svg">
<g clip-path="url(#clip0_1041_1119)">
<path d="M48.5 9V39H0.5V9H15.5V6C15.5 5.57812 15.5781 5.1875 15.7344 4.82812C15.8906 4.46875 16.1016 4.15625 16.3672 3.89062C16.6328 3.625 16.9531 3.40625 17.3281 3.23438C17.7031 3.0625 18.0938 2.98438 18.5 3H30.5C30.9219 3 31.3125 3.07812 31.6719 3.23438C32.0312 3.39062 32.3438 3.60156 32.6094 3.86719C32.875 4.13281 33.0938 4.45312 33.2656 4.82812C33.4375 5.20312 33.5156 5.59375 33.5 6V9H48.5ZM18.5 9H30.5V6H18.5V9ZM3.5 12V16.3359L18.5 23.8125V21H30.5V23.8125L45.5 16.3359V12H3.5ZM21.5 24V27H27.5V24H21.5ZM45.5 36V19.6641L30.5 27.1875V30H18.5V27.1875L3.5 19.6641V36H45.5Z" fill="#FF804B"/>
</g>
<defs>
<clipPath id="clip0_1041_1119">
<rect width="48" height="48" fill="white" transform="translate(0.5)"/>
</clipPath>
</defs>
</svg>
