<svg width="81" height="81" viewBox="0 0 81 81" fill="none" xmlns="http://www.w3.org/2000/svg">
<path fill-rule="evenodd" clip-rule="evenodd" d="M38.2237 31.4213C37.9737 31.2575 37.7239 31.0935 37.4752 30.9283C36.4262 31.6023 35.3804 32.279 34.3347 32.956C32.3674 34.2295 30.3999 35.503 28.4119 36.7558C27.6947 34.582 26.1484 32.8365 23.9678 32.157C22.4292 31.6778 20.5211 31.7403 18.548 31.805C17.3582 31.844 16.1448 31.8838 14.9746 31.806V46.4445C16.1726 46.389 17.3628 46.4228 18.5162 46.4555C19.7584 46.491 20.9579 46.525 22.0781 46.4445C25.5421 46.1955 27.6357 44.087 28.5169 41.2843C30.0012 42.2553 31.4604 43.2515 32.9197 44.248C34.4519 45.294 35.9839 46.3403 37.5452 47.3573C38.5484 46.7153 39.5582 46.0575 40.5692 45.399C42.5077 44.1365 44.4512 42.8708 46.3634 41.7053V46.4445H56.2667V41.7755C55.6809 41.7668 55.0814 41.7715 54.4819 41.776C53.5059 41.7838 52.5299 41.7913 51.6124 41.7408V31.806H46.3634V36.791C45.7139 37.2065 45.0662 37.6235 44.4182 38.0405C42.6862 39.156 40.9539 40.2713 39.1899 41.3545C39.0517 41.264 38.9077 41.1795 38.7637 41.095C38.5102 40.9465 38.2569 40.7978 38.0352 40.6173C39.0277 39.9738 40.0097 39.3198 40.9917 38.666C42.3304 37.7748 43.6689 36.8835 45.0339 36.0185C44.0564 35.279 43.0137 34.605 41.9544 33.9473C39.7752 35.3463 37.5877 36.7365 35.4002 38.1268C35.2169 38.243 35.0339 38.3595 34.8507 38.4758C34.6722 38.3388 34.4814 38.214 34.2907 38.0895C34.1002 37.965 33.9094 37.8403 33.7312 37.7035C34.7084 37.0788 35.6802 36.4483 36.6519 35.8175C38.0174 34.9315 39.3832 34.0453 40.7647 33.175C39.9527 32.5553 39.0882 31.9883 38.2237 31.4213ZM19.9785 41.7758V36.51C19.9754 36.4603 19.9729 36.4105 20.0133 36.4048C21.5288 36.3073 22.6209 36.4643 23.2677 37.212C24.237 38.3328 24.0158 40.436 22.9178 41.2843C22.2522 41.7988 21.4134 41.79 20.3379 41.7788C20.2209 41.7775 20.1011 41.7763 19.9785 41.7758Z" fill="#0083CA"/>
<path d="M62.8792 31.806H57.6305C57.5897 31.8118 57.5925 31.861 57.595 31.9108V46.4448H67.4985V41.7758H62.8792V31.806Z" fill="#0083CA"/>
<path fill-rule="evenodd" clip-rule="evenodd" d="M41.7788 5.02078H39.6093C29.1261 5.59976 21.524 9.64851 15.9542 15.2365C10.4099 20.7986 6.26382 28.3063 5.73617 38.8975C5.74207 38.9383 5.72862 38.96 5.70117 38.9678V41.074C6.2522 51.7058 10.3758 59.136 15.954 64.77C21.5323 70.404 29.0578 74.4225 39.6093 75.0205H41.7438C52.5053 74.4895 59.6346 70.315 65.4341 64.8053C70.9548 59.0048 75.1513 51.8755 75.6871 41.074V38.9678C75.1361 28.336 71.0126 20.9055 65.4341 15.2716C59.8558 9.63776 52.3316 5.61778 41.7788 5.02078ZM27.1168 12.1471C28.8068 11.3087 30.6716 10.5994 32.7506 10.0409C34.8456 9.47806 37.1411 9.17413 39.5748 9.05788C44.5248 8.82143 49.1468 9.92353 52.6973 11.41C56.3566 12.9419 59.4616 15.0615 62.0404 17.5533C67.2521 22.5893 71.2011 29.193 71.6633 38.9325C71.9076 44.0738 70.7778 48.318 69.2839 51.9918C66.3296 59.2545 60.9999 64.518 54.2366 67.9295C50.7859 69.67 46.6206 70.754 41.8141 70.9838C36.8028 71.223 32.3531 70.1548 28.7616 68.6318C21.4993 65.5518 16.2516 60.4843 12.8047 53.6065C11.0593 50.1233 9.9544 46.037 9.7255 41.1793C9.36247 33.4738 11.8692 27.5978 14.7643 23.0298C17.7305 18.35 21.9727 14.699 27.1168 12.1471Z" fill="#0083CA"/>
</svg>
