<svg width="187" height="187" viewBox="0 0 187 187" fill="none" xmlns="http://www.w3.org/2000/svg">
<rect width="187" height="187" rx="93.5" fill="white"/>
<path fill-rule="evenodd" clip-rule="evenodd" d="M87.7275 73.3987C87.1431 73.0159 86.5593 72.6325 85.9778 72.2463C83.5258 73.8218 81.0814 75.4037 78.6369 76.9861C74.0385 79.9629 69.4394 82.9398 64.7925 85.8681C63.1159 80.7869 59.5016 76.7068 54.4044 75.1185C50.8079 73.9982 46.3477 74.1443 41.7356 74.2957C38.9545 74.3868 36.1182 74.4798 33.3828 74.298V108.516C36.1831 108.386 38.9653 108.465 41.6612 108.541C44.565 108.624 47.3687 108.704 49.9873 108.516C58.0843 107.933 62.978 103.005 65.0379 96.4534C68.5074 98.7231 71.9184 101.052 75.3294 103.381C78.911 105.826 82.4921 108.272 86.1415 110.649C88.4866 109.148 90.8469 107.611 93.2101 106.072C97.7413 103.121 102.284 100.162 106.754 97.4375V108.516H129.903V97.6017C128.534 97.5813 127.132 97.5924 125.731 97.6029C123.45 97.621 121.168 97.6385 119.024 97.5205V74.298H106.754V85.9505C105.236 86.9217 103.722 87.8964 102.207 88.8712C98.1586 91.4786 94.1094 94.0855 89.9861 96.6176C89.6629 96.4061 89.3263 96.2086 88.9897 96.0111C88.3972 95.6639 87.8052 95.3162 87.2868 94.8943C89.6068 93.3901 91.9022 91.8614 94.1977 90.3333C97.327 88.25 100.456 86.1667 103.646 84.1447C101.362 82.4162 98.9241 80.8407 96.4481 79.3032C91.3541 82.5733 86.2408 85.8231 81.1275 89.0728C80.6992 89.3445 80.2714 89.6168 79.8431 89.8886C79.4258 89.5683 78.98 89.2767 78.5341 88.9857C78.0888 88.6947 77.6429 88.4031 77.2262 88.0834C79.5106 86.6231 81.782 85.1493 84.0535 83.6749C87.2453 81.6039 90.4378 79.5323 93.667 77.4981C91.769 76.0494 89.7482 74.724 87.7275 73.3987ZM45.0793 97.6023V85.2936C45.0722 85.1773 45.0663 85.061 45.1608 85.0476C48.7032 84.8197 51.2559 85.1867 52.7679 86.9345C55.0336 89.5543 54.5165 94.4706 51.95 96.4534C50.3943 97.6561 48.4335 97.6356 45.9196 97.6093C45.6461 97.6064 45.3661 97.6035 45.0793 97.6023Z" fill="#0083CA"/>
<path d="M145.359 74.298H133.09C132.995 74.3115 133.001 74.4266 133.007 74.5429V108.516H156.156V97.6023H145.359V74.298Z" fill="#0083CA"/>
<path fill-rule="evenodd" clip-rule="evenodd" d="M96.0347 11.6875H90.9635C66.4589 13.0409 48.689 22.5048 35.6696 35.5668C22.7098 48.5682 13.0183 66.1174 11.7849 90.8744C11.7987 90.9697 11.7673 91.0205 11.7031 91.0386V95.962C12.9911 120.814 22.6301 138.182 35.6692 151.351C48.7084 164.521 66.2994 173.914 90.9635 175.312H95.9529C121.108 174.071 137.773 164.313 151.329 151.434C164.234 137.875 174.043 121.21 175.295 95.962V91.0386C174.007 66.1869 164.369 48.818 151.329 35.6488C138.29 22.4797 120.702 13.083 96.0347 11.6875ZM61.7623 28.3453C65.7126 26.3855 70.0715 24.7275 74.9312 23.4219C79.8282 22.1064 85.1939 21.396 90.8828 21.1242C102.453 20.5715 113.257 23.1477 121.557 26.6222C130.11 30.2032 137.368 35.1578 143.396 40.9823C155.578 52.7539 164.809 68.1901 165.89 90.9562C166.461 102.974 163.82 112.895 160.328 121.482C153.422 138.459 140.964 150.762 125.155 158.737C117.089 162.805 107.352 165.339 96.1171 165.876C84.4033 166.435 74.002 163.938 65.6069 160.378C48.6312 153.179 36.3647 141.333 28.3076 125.257C24.2277 117.115 21.645 107.563 21.11 96.208C20.2614 78.1964 26.1209 64.4612 32.8883 53.7835C39.8218 42.8445 49.7379 34.3104 61.7623 28.3453Z" fill="#0083CA"/>
</svg>
