<svg width="32" height="33" viewBox="0 0 32 33" fill="none" xmlns="http://www.w3.org/2000/svg">
<g clip-path="url(#clip0_2087_8353)">
<path d="M31.9062 25.5L26.2031 31.2031L24.7969 29.7969L28.0938 26.5H18V24.5H28.0938L24.7969 21.2031L26.2031 19.7969L31.9062 25.5ZM21.1094 22.4062C20.7031 21.5104 20.1875 20.7031 19.5625 19.9844C18.9375 19.2656 18.224 18.6458 17.4219 18.125C16.6198 17.6042 15.7656 17.2031 14.8594 16.9219C13.9531 16.6406 13 16.5 12 16.5C11.0833 16.5 10.1979 16.6198 9.34375 16.8594C8.48958 17.099 7.69271 17.4323 6.95312 17.8594C6.21354 18.2865 5.54167 18.8073 4.9375 19.4219C4.33333 20.0365 3.8125 20.7135 3.375 21.4531C2.9375 22.1927 2.59896 22.9896 2.35938 23.8438C2.11979 24.6979 2 25.5833 2 26.5H0C0 25.2812 0.182292 24.0885 0.546875 22.9219C0.911458 21.7552 1.4375 20.6771 2.125 19.6875C2.8125 18.6979 3.63021 17.8177 4.57812 17.0469C5.52604 16.276 6.58333 15.6875 7.75 15.2812C7.16667 14.9062 6.64583 14.474 6.1875 13.9844C5.72917 13.4948 5.33333 12.9583 5 12.375C4.66667 11.7917 4.42188 11.1771 4.26562 10.5312C4.10938 9.88542 4.02083 9.20833 4 8.5C4 7.39583 4.20833 6.35938 4.625 5.39062C5.04167 4.42188 5.60938 3.57292 6.32812 2.84375C7.04688 2.11458 7.89583 1.54167 8.875 1.125C9.85417 0.708333 10.8958 0.5 12 0.5C13.1042 0.5 14.1406 0.708333 15.1094 1.125C16.0781 1.54167 16.9271 2.10938 17.6562 2.82812C18.3854 3.54688 18.9583 4.39583 19.375 5.375C19.7917 6.35417 20 7.39583 20 8.5C20 9.92708 19.6719 11.2188 19.0156 12.375C18.3594 13.5312 17.4375 14.5 16.25 15.2812C17 15.5625 17.7083 15.9115 18.375 16.3281C19.0417 16.7448 19.6562 17.224 20.2188 17.7656C20.7812 18.3073 21.2917 18.901 21.75 19.5469C22.2083 20.1927 22.6042 20.875 22.9375 21.5938L21.1094 22.4062ZM6 8.5C6 9.33333 6.15625 10.1094 6.46875 10.8281C6.78125 11.5469 7.20833 12.1823 7.75 12.7344C8.29167 13.2865 8.92708 13.7188 9.65625 14.0312C10.3854 14.3438 11.1667 14.5 12 14.5C12.8229 14.5 13.599 14.3438 14.3281 14.0312C15.0573 13.7188 15.6927 13.2917 16.2344 12.75C16.776 12.2083 17.2083 11.5729 17.5312 10.8438C17.8542 10.1146 18.0104 9.33333 18 8.5C18 7.67708 17.8438 6.90104 17.5312 6.17188C17.2188 5.44271 16.7917 4.80729 16.25 4.26562C15.7083 3.72396 15.0677 3.29167 14.3281 2.96875C13.5885 2.64583 12.8125 2.48958 12 2.5C11.1667 2.5 10.3906 2.65625 9.67188 2.96875C8.95312 3.28125 8.31771 3.70833 7.76562 4.25C7.21354 4.79167 6.78125 5.43229 6.46875 6.17188C6.15625 6.91146 6 7.6875 6 8.5Z" fill="#013E5D"/>
</g>
<defs>
<clipPath id="clip0_2087_8353">
<rect width="32" height="32" fill="white" transform="translate(0 0.5)"/>
</clipPath>
</defs>
</svg>
