<svg width="32" height="33" viewBox="0 0 32 33" fill="none" xmlns="http://www.w3.org/2000/svg">
<path d="M15.3346 5.83317C14.097 5.83317 12.91 6.32484 12.0348 7.20001C11.1596 8.07518 10.668 9.26216 10.668 10.4998C10.668 11.7375 11.1596 12.9245 12.0348 13.7997C12.91 14.6748 14.097 15.1665 15.3346 15.1665C16.5723 15.1665 17.7593 14.6748 18.6345 13.7997C19.5096 12.9245 20.0013 11.7375 20.0013 10.4998C20.0013 9.26216 19.5096 8.07518 18.6345 7.20001C17.7593 6.32484 16.5723 5.83317 15.3346 5.83317ZM8.0013 10.4998C8.0013 8.55492 8.77392 6.68965 10.1492 5.31439C11.5245 3.93912 13.3897 3.1665 15.3346 3.1665C17.2796 3.1665 19.1448 3.93912 20.5201 5.31439C21.8954 6.68965 22.668 8.55492 22.668 10.4998C22.668 12.4448 21.8954 14.31 20.5201 15.6853C19.1448 17.0606 17.2796 17.8332 15.3346 17.8332C13.3897 17.8332 11.5245 17.0606 10.1492 15.6853C8.77392 14.31 8.0013 12.4448 8.0013 10.4998ZM31.544 20.6198L22.116 30.0478L16.4586 24.3905L18.344 22.5052L22.116 26.2772L29.6586 18.7345L31.544 20.6198ZM10.668 21.8332C9.25348 21.8332 7.89693 22.3951 6.89673 23.3953C5.89654 24.3955 5.33464 25.752 5.33464 27.1665H16.068V29.8332H2.66797V27.1665C2.66797 25.0448 3.51082 23.0099 5.01111 21.5097C6.51141 20.0094 8.54624 19.1665 10.668 19.1665H16.0013V21.8332H10.668Z" fill="#013E5D"/>
</svg>
