<svg width="32" height="33" viewBox="0 0 32 33" fill="none" xmlns="http://www.w3.org/2000/svg">
<g clip-path="url(#clip0_2087_8390)">
<path d="M19.0017 10.5C19.0017 10.2348 19.1071 9.98046 19.2946 9.79292C19.4822 9.60539 19.7365 9.50003 20.0017 9.50003H31.0017C31.267 9.50003 31.5213 9.60539 31.7088 9.79292C31.8964 9.98046 32.0017 10.2348 32.0017 10.5C32.0017 10.7652 31.8964 11.0196 31.7088 11.2071C31.5213 11.3947 31.267 11.5 31.0017 11.5H20.0017C19.7365 11.5 19.4822 11.3947 19.2946 11.2071C19.1071 11.0196 19.0017 10.7652 19.0017 10.5ZM31.0017 15.5H20.0017C19.7365 15.5 19.4822 15.6054 19.2946 15.7929C19.1071 15.9805 19.0017 16.2348 19.0017 16.5C19.0017 16.7652 19.1071 17.0196 19.2946 17.2071C19.4822 17.3947 19.7365 17.5 20.0017 17.5H31.0017C31.267 17.5 31.5213 17.3947 31.7088 17.2071C31.8964 17.0196 32.0017 16.7652 32.0017 16.5C32.0017 16.2348 31.8964 15.9805 31.7088 15.7929C31.5213 15.6054 31.267 15.5 31.0017 15.5ZM31.0017 21.5H23.0017C22.7365 21.5 22.4822 21.6054 22.2946 21.7929C22.1071 21.9805 22.0017 22.2348 22.0017 22.5C22.0017 22.7652 22.1071 23.0196 22.2946 23.2071C22.4822 23.3947 22.7365 23.5 23.0017 23.5H31.0017C31.267 23.5 31.5213 23.3947 31.7088 23.2071C31.8964 23.0196 32.0017 22.7652 32.0017 22.5C32.0017 22.2348 31.8964 21.9805 31.7088 21.7929C31.5213 21.6054 31.267 21.5 31.0017 21.5ZM18.9705 24.25C19.0032 24.3772 19.0105 24.5097 18.992 24.6397C18.9735 24.7697 18.9296 24.8949 18.8627 25.0079C18.7958 25.121 18.7074 25.2198 18.6023 25.2986C18.4973 25.3775 18.3777 25.4349 18.2505 25.4675C18.169 25.4894 18.0849 25.5003 18.0005 25.5C17.7787 25.5001 17.5632 25.4265 17.3878 25.2908C17.2124 25.155 17.0872 24.9648 17.0317 24.75C16.2617 21.7575 13.2392 19.5 10.0005 19.5C6.76174 19.5 3.73924 21.7563 2.96924 24.75C2.90294 25.007 2.73728 25.227 2.50872 25.3618C2.28016 25.4966 2.00742 25.5351 1.75049 25.4688C1.49356 25.4025 1.2735 25.2368 1.1387 25.0083C1.00391 24.7797 0.965437 24.507 1.03174 24.25C1.73049 21.5363 3.76174 19.3388 6.33924 18.25C5.34678 17.4856 4.61848 16.4297 4.25647 15.2304C3.89446 14.0311 3.91691 12.7486 4.32067 11.5628C4.72443 10.3769 5.48924 9.34713 6.50785 8.61791C7.52646 7.88869 8.74777 7.49658 10.0005 7.49658C11.2532 7.49658 12.4745 7.88869 13.4931 8.61791C14.5117 9.34713 15.2766 10.3769 15.6803 11.5628C16.0841 12.7486 16.1065 14.0311 15.7445 15.2304C15.3825 16.4297 14.6542 17.4856 13.6617 18.25C16.2405 19.3388 18.2717 21.5363 18.9705 24.25ZM10.0017 17.5C10.7929 17.5 11.5662 17.2654 12.224 16.8259C12.8818 16.3864 13.3945 15.7617 13.6973 15.0308C14 14.2999 14.0792 13.4956 13.9249 12.7197C13.7705 11.9437 13.3896 11.231 12.8302 10.6716C12.2708 10.1122 11.558 9.73123 10.7821 9.57689C10.0062 9.42255 9.20191 9.50176 8.47101 9.80451C7.7401 10.1073 7.11539 10.62 6.67586 11.2777C6.23634 11.9355 6.00174 12.7089 6.00174 13.5C6.00174 14.5609 6.42317 15.5783 7.17331 16.3285C7.92346 17.0786 8.94088 17.5 10.0017 17.5Z" fill="#013E5D"/>
</g>
<defs>
<clipPath id="clip0_2087_8390">
<rect width="32" height="32" fill="white" transform="translate(0 0.5)"/>
</clipPath>
</defs>
</svg>
