<svg width="24" height="25" viewBox="0 0 24 25" fill="none" xmlns="http://www.w3.org/2000/svg">
<path d="M12.5598 21.32C12.3966 21.4372 12.2007 21.5003 11.9998 21.5003C11.7988 21.5003 11.603 21.4372 11.4398 21.32C6.61078 17.878 1.48578 10.798 6.66678 5.682C8.08912 4.28285 10.0046 3.49912 11.9998 3.5C13.9998 3.5 15.9188 4.285 17.3328 5.681C22.5138 10.797 17.3888 17.876 12.5598 21.32Z" stroke="#1C1A1A" stroke-width="1.5" stroke-linecap="round" stroke-linejoin="round"/>
<path d="M12 12.5C12.5304 12.5 13.0391 12.2893 13.4142 11.9142C13.7893 11.5391 14 11.0304 14 10.5C14 9.96957 13.7893 9.46086 13.4142 9.08579C13.0391 8.71071 12.5304 8.5 12 8.5C11.4696 8.5 10.9609 8.71071 10.5858 9.08579C10.2107 9.46086 10 9.96957 10 10.5C10 11.0304 10.2107 11.5391 10.5858 11.9142C10.9609 12.2893 11.4696 12.5 12 12.5Z" stroke="#1C1A1A" stroke-width="1.5" stroke-linecap="round" stroke-linejoin="round"/>
</svg>
