<svg width="50" height="50" viewBox="0 0 50 50" fill="none" xmlns="http://www.w3.org/2000/svg">
<rect x="0.5" y="0.5" width="49" height="49" rx="4.5" stroke="#8D8A8A"/>
<g clip-path="url(#clip0_992_1259)">
<mask id="mask0_992_1259" style="mask-type:luminance" maskUnits="userSpaceOnUse" x="9" y="9" width="32" height="32">
<path d="M41 9H9V41H41V9Z" fill="white"/>
</mask>
<g mask="url(#mask0_992_1259)">
<path d="M24.9991 40.9893C24.841 40.9893 24.6808 40.9872 24.5248 40.9829L27.7911 32.0024H32.2877C33.0781 32.0024 33.9454 31.3936 34.2146 30.6523L37.7585 20.9156C38.3396 19.322 37.4274 18.0168 35.7291 18.0168H29.4915L24.2557 32.4018H24.2535L21.2864 40.5557C14.2477 38.8809 9.00977 32.5514 9.00977 25C9.00977 17.6644 13.9486 11.4844 20.6819 9.60027L17.6207 18.0168H17.6186L12.5281 32.0024H15.9182L20.2461 20.1188H22.7945L18.4645 32.0024H21.8525L25.8856 20.9156C26.4667 19.322 25.5524 18.0168 23.8583 18.0168H21.0109L24.2813 9.02777C24.5191 9.01638 24.7584 9.01068 24.9991 9.01068C33.8301 9.01068 40.9884 16.169 40.9884 25C40.9884 33.831 33.8301 40.9893 24.9991 40.9893Z" fill="#1C1A1A"/>
<path d="M31.1089 29.8918H28.5625L32.1278 20.1103H34.6741L31.1089 29.8918Z" fill="#1C1A1A"/>
</g>
</g>
<defs>
<clipPath id="clip0_992_1259">
<rect width="32" height="32" fill="white" transform="translate(9 9)"/>
</clipPath>
</defs>
</svg>
