<svg width="49" height="48" viewBox="0 0 49 48" fill="none" xmlns="http://www.w3.org/2000/svg">
<path d="M24.5 4C35.546 4 44.5 12.954 44.5 24C44.5 35.046 35.546 44 24.5 44C13.454 44 4.5 35.046 4.5 24C4.5 12.954 13.454 4 24.5 4ZM24.5 8C20.2565 8 16.1869 9.68571 13.1863 12.6863C10.1857 15.6869 8.5 19.7565 8.5 24C8.5 28.2435 10.1857 32.3131 13.1863 35.3137C16.1869 38.3143 20.2565 40 24.5 40C28.7435 40 32.8131 38.3143 35.8137 35.3137C38.8143 32.3131 40.5 28.2435 40.5 24C40.5 19.7565 38.8143 15.6869 35.8137 12.6863C32.8131 9.68571 28.7435 8 24.5 8ZM24.5 12C24.9899 12.0001 25.4627 12.1799 25.8287 12.5054C26.1948 12.8309 26.4287 13.2795 26.486 13.766L26.5 14V23.172L31.914 28.586C32.2727 28.9459 32.4809 29.4289 32.4965 29.9368C32.512 30.4447 32.3336 30.9394 31.9975 31.3206C31.6614 31.7017 31.1929 31.9406 30.6871 31.9888C30.1812 32.037 29.676 31.8908 29.274 31.58L29.086 31.414L23.086 25.414C22.7752 25.1029 22.5755 24.698 22.518 24.262L22.5 24V14C22.5 13.4696 22.7107 12.9609 23.0858 12.5858C23.4609 12.2107 23.9696 12 24.5 12Z" fill="#F24822"/>
</svg>
