<svg width="48" height="48" viewBox="0 0 48 48" fill="none" xmlns="http://www.w3.org/2000/svg">
<path d="M25.1196 41.64C24.7932 41.8744 24.4014 42.0005 23.9996 42.0005C23.5977 42.0005 23.206 41.8744 22.8796 41.64C13.2216 34.756 2.97156 20.596 13.3336 10.364C16.1782 7.5657 20.0092 5.99825 23.9996 6C27.9996 6 31.8376 7.57 34.6656 10.362C45.0276 20.594 34.7776 34.752 25.1196 41.64Z" stroke="#FF804B" stroke-width="3" stroke-linecap="round" stroke-linejoin="round"/>
<path d="M24 24C25.0609 24 26.0783 23.5786 26.8284 22.8284C27.5786 22.0783 28 21.0609 28 20C28 18.9391 27.5786 17.9217 26.8284 17.1716C26.0783 16.4214 25.0609 16 24 16C22.9391 16 21.9217 16.4214 21.1716 17.1716C20.4214 17.9217 20 18.9391 20 20C20 21.0609 20.4214 22.0783 21.1716 22.8284C21.9217 23.5786 22.9391 24 24 24Z" stroke="#FF804B" stroke-width="3" stroke-linecap="round" stroke-linejoin="round"/>
</svg>
