<svg width="49" height="48" viewBox="0 0 49 48" fill="none" xmlns="http://www.w3.org/2000/svg">
<path d="M37.4597 24C35.7817 22.5935 33.6486 21.8469 31.4597 21.9H17.3897C16.7482 21.9162 16.11 21.8028 15.5133 21.5665C14.9167 21.3303 14.3738 20.9761 13.9173 20.5252C13.4607 20.0742 13.0999 19.5358 12.8563 18.9421C12.6127 18.3484 12.4914 17.7117 12.4997 17.07C12.4841 16.8202 12.4841 16.5697 12.4997 16.32C12.6889 15.1734 13.2901 14.1353 14.1905 13.4006C15.0909 12.666 16.2285 12.2853 17.3897 12.33H31.2497C32.3803 12.329 33.4745 12.7296 34.3371 13.4604C35.1998 14.1912 35.7748 15.2046 35.9597 16.32H40.4597C40.2713 14.0068 39.2193 11.8492 37.5129 10.2762C35.8065 8.70313 33.5706 7.82987 31.2497 7.82999H26.5097V0.929993H22.7597V7.82999H17.3897C15.0688 7.82987 12.8329 8.70313 11.1265 10.2762C9.42006 11.8492 8.36808 14.0068 8.1797 16.32C8.16406 16.5697 8.16406 16.8202 8.1797 17.07C8.1797 18.2795 8.41792 19.4771 8.88077 20.5945C9.34361 21.7119 10.022 22.7272 10.8772 23.5824C12.6045 25.3097 14.9471 26.28 17.3897 26.28H31.6097C32.2461 26.264 32.8793 26.3755 33.472 26.6081C34.0646 26.8406 34.6047 27.1894 35.0604 27.6339C35.5162 28.0785 35.8783 28.6098 36.1255 29.1964C36.3727 29.7831 36.4999 30.4134 36.4997 31.05C36.5287 31.3894 36.5287 31.7306 36.4997 32.07C36.2615 33.1255 35.6715 34.0688 34.8265 34.7447C33.9815 35.4207 32.9318 35.7893 31.8497 35.79H17.7497C16.6676 35.7893 15.6179 35.4207 14.7729 34.7447C13.9279 34.0688 13.3379 33.1255 13.0997 32.07H8.5697C8.82751 34.3241 9.90561 36.4045 11.5985 37.9149C13.2915 39.4252 15.4809 40.26 17.7497 40.26H22.7597V47.07H26.5097V40.26H31.6097C33.8785 40.26 36.0679 39.4252 37.7608 37.9149C39.4538 36.4045 40.5319 34.3241 40.7897 32.07V31.05C40.7861 29.7025 40.4859 28.3723 39.9104 27.1539C39.3348 25.9355 38.4982 24.8587 37.4597 24Z" fill="#FF804B"/>
</svg>
