<svg width="60" height="61" viewBox="0 0 60 61" fill="none" xmlns="http://www.w3.org/2000/svg">
<path d="M7.50586 6.42847C7.50586 3.11476 10.1922 0.428467 13.5059 0.428467H35.4551L52.5018 18.1557V54.4285C52.5018 57.7422 49.8155 60.4285 46.5018 60.4285H13.5059C10.1921 60.4285 7.50586 57.7422 7.50586 54.4285V6.42847Z" fill="#FF464B"/>
<path d="M35.4551 18.1557V0.428467L52.5005 18.1557H35.4551Z" fill="#FF8689"/>
<path d="M19.6055 35.6533C20.5104 35.6533 21.1875 35.8503 21.6367 36.2441C22.0892 36.638 22.3154 37.1979 22.3154 37.9238C22.3154 38.2493 22.2682 38.5618 22.1738 38.8613C22.0827 39.1608 21.9313 39.4277 21.7197 39.6621C21.5114 39.8965 21.2331 40.082 20.8848 40.2188C20.5397 40.3555 20.1133 40.4238 19.6055 40.4238H19.0635V42.792H17.1348V35.6533H19.6055ZM19.5615 37.2109H19.0635V38.8516H19.4443C19.6104 38.8516 19.765 38.8239 19.9082 38.7686C20.0514 38.71 20.1654 38.6172 20.25 38.4902C20.3379 38.36 20.3818 38.1875 20.3818 37.9727C20.3818 37.748 20.3151 37.5658 20.1816 37.4258C20.0482 37.2826 19.8415 37.2109 19.5615 37.2109ZM29.3127 39.0713C29.3127 39.9014 29.1581 40.5915 28.8488 41.1416C28.5396 41.6917 28.1034 42.1051 27.5402 42.3818C26.9803 42.6553 26.3212 42.792 25.5627 42.792H23.2531V35.6533H25.7238C26.4921 35.6533 27.1431 35.7852 27.677 36.0488C28.2108 36.3125 28.6161 36.6982 28.8928 37.2061C29.1727 37.7139 29.3127 38.3356 29.3127 39.0713ZM27.3107 39.1396C27.3107 38.7067 27.2521 38.3486 27.135 38.0654C27.021 37.779 26.8485 37.5658 26.6174 37.4258C26.3863 37.2826 26.0949 37.2109 25.7434 37.2109H25.1818V41.21H25.6115C26.1975 41.21 26.6271 41.0407 26.9006 40.7021C27.174 40.3604 27.3107 39.8395 27.3107 39.1396ZM32.2963 42.792H30.3969V35.6533H34.6156V37.2012H32.2963V38.5635H34.435V40.1113H32.2963V42.792Z" fill="white"/>
</svg>
