<svg width="19" height="20" viewBox="0 0 19 20" fill="none" xmlns="http://www.w3.org/2000/svg">
<path d="M17.5 19.5C17.8978 19.5 18.2794 19.342 18.5607 19.0607C18.842 18.7794 19 18.3978 19 18V14.5C19 14.1022 18.842 13.7206 18.5607 13.4393C18.2794 13.158 17.8978 13 17.5 13C16.33 13 15.18 12.82 14.08 12.45C13.817 12.367 13.5363 12.3576 13.2683 12.4228C13.0004 12.488 12.7554 12.6254 12.56 12.82L11.12 14.26C8.63224 12.9024 6.58758 10.8578 5.23 8.37L6.66 6.94C7.07 6.55 7.22 5.97 7.04 5.41C6.68 4.32 6.5 3.17 6.5 2C6.5 1.60218 6.34196 1.22064 6.06066 0.93934C5.77936 0.658035 5.39782 0.5 5 0.5H1.5C1.10218 0.5 0.720644 0.658035 0.43934 0.93934C0.158035 1.22064 0 1.60218 0 2C0 11.65 7.85 19.5 17.5 19.5ZM1.5 1.5H5C5.13261 1.5 5.25979 1.55268 5.35355 1.64645C5.44732 1.74021 5.5 1.86739 5.5 2C5.5 3.28 5.7 4.53 6.09 5.72C6.14 5.86 6.13 6.06 5.97 6.22L4 8.18C5.65 11.41 8.07 13.83 11.31 15.5L13.26 13.53C13.4 13.39 13.59 13.35 13.77 13.4C14.97 13.8 16.22 14 17.5 14C17.6326 14 17.7598 14.0527 17.8536 14.1464C17.9473 14.2402 18 14.3674 18 14.5V18C18 18.1326 17.9473 18.2598 17.8536 18.3536C17.7598 18.4473 17.6326 18.5 17.5 18.5C8.4 18.5 1 11.1 1 2C1 1.86739 1.05268 1.74021 1.14645 1.64645C1.24021 1.55268 1.36739 1.5 1.5 1.5Z" fill="#1C1A1A"/>
</svg>
