<svg width="485" height="261" viewBox="0 0 485 261" fill="none" xmlns="http://www.w3.org/2000/svg">
<path opacity="0.3" d="M330.67 50.8884C326.936 60.3729 320.999 35.002 311.547 31.2555C302.095 27.509 278.473 29.1109 282.207 19.6264C285.941 10.142 313.489 9.33624 322.941 13.0827C332.393 16.8293 334.403 41.404 330.67 50.8884Z" fill="#03A9F4"/>
<ellipse opacity="0.1" cx="313.373" cy="192.087" rx="7.88649" ry="7.91331" fill="#03A9F4"/>
<ellipse opacity="0.1" cx="300.228" cy="48.3281" rx="7.88649" ry="7.91331" fill="#03A9F4"/>
<ellipse opacity="0.1" cx="150.386" cy="98.446" rx="7.88649" ry="7.91331" fill="#03A9F4"/>
<rect width="84.9188" height="113.417" rx="18" transform="matrix(0.865289 0.501274 -0.498728 0.866759 253.887 51.7495)" fill="#FFEBCC"/>
<ellipse opacity="0.1" cx="197.705" cy="170.985" rx="14.4586" ry="14.5077" fill="#03A9F4"/>
<rect x="193.762" y="58.8794" width="94.6379" height="126.613" rx="18" fill="#FFB237"/>
<ellipse opacity="0.1" cx="270.655" cy="79.3222" rx="23.0023" ry="23.0805" fill="#301008"/>
<ellipse cx="275.912" cy="72.7277" rx="23.0023" ry="23.0805" fill="#FFF6F4"/>
<path d="M284.346 68.7497L274.369 78.7607L268.406 72.7776" stroke="#39B070" stroke-width="2" stroke-linecap="round"/>
<rect x="208.221" y="78.6626" width="24.9739" height="25.0588" rx="5" fill="white"/>
<path d="M210.85 123.505H273.284" stroke="white" stroke-width="5"/>
<path d="M210.85 140.65H273.284" stroke="white" stroke-width="5"/>
<path d="M210.85 157.796L245.024 157.796" stroke="white" stroke-width="5"/>
<path d="M301.483 101.74C302.946 101.267 304.371 102.56 304.048 104.068L302.869 109.567C302.546 111.074 300.718 111.665 299.578 110.63L295.421 106.857C294.282 105.822 294.685 103.938 296.148 103.465L301.483 101.74Z" fill="#FBCBCB"/>
<path d="M177.792 182.447C178.523 182.21 179.236 182.857 179.074 183.611L178.17 187.832C178.008 188.585 177.094 188.881 176.524 188.363L173.333 185.467C172.763 184.95 172.965 184.007 173.697 183.771L177.792 182.447Z" fill="#FBCBCB"/>
<path d="M202.764 43.9635C203.496 43.7269 204.208 44.3739 204.047 45.1278L203.142 49.3485C202.981 50.1023 202.066 50.3977 201.497 49.8803L198.306 46.9838C197.736 46.4664 197.938 45.5242 198.669 45.2877L202.764 43.9635Z" fill="#FBCBCB"/>
<g filter="url(#filter0_d_1569_7071)">
<path d="M199.527 244.126C198.687 244.126 197.931 243.982 197.259 243.694C196.587 243.394 196.059 242.974 195.675 242.434C195.291 241.894 195.099 241.264 195.099 240.544H197.295C197.343 241.084 197.553 241.528 197.925 241.876C198.309 242.224 198.843 242.398 199.527 242.398C200.235 242.398 200.787 242.23 201.183 241.894C201.579 241.546 201.777 241.102 201.777 240.562C201.777 240.142 201.651 239.8 201.399 239.536C201.159 239.272 200.853 239.068 200.481 238.924C200.121 238.78 199.617 238.624 198.969 238.456C198.153 238.24 197.487 238.024 196.971 237.808C196.467 237.58 196.035 237.232 195.675 236.764C195.315 236.296 195.135 235.672 195.135 234.892C195.135 234.172 195.315 233.542 195.675 233.002C196.035 232.462 196.539 232.048 197.187 231.76C197.835 231.472 198.585 231.328 199.437 231.328C200.649 231.328 201.639 231.634 202.407 232.246C203.187 232.846 203.619 233.674 203.703 234.73H201.435C201.399 234.274 201.183 233.884 200.787 233.56C200.391 233.236 199.869 233.074 199.221 233.074C198.633 233.074 198.153 233.224 197.781 233.524C197.409 233.824 197.223 234.256 197.223 234.82C197.223 235.204 197.337 235.522 197.565 235.774C197.805 236.014 198.105 236.206 198.465 236.35C198.825 236.494 199.317 236.65 199.941 236.818C200.769 237.046 201.441 237.274 201.957 237.502C202.485 237.73 202.929 238.084 203.289 238.564C203.661 239.032 203.847 239.662 203.847 240.454C203.847 241.09 203.673 241.69 203.325 242.254C202.989 242.818 202.491 243.274 201.831 243.622C201.183 243.958 200.415 244.126 199.527 244.126ZM215.25 234.082V244H213.198V242.83C212.874 243.238 212.448 243.562 211.92 243.802C211.404 244.03 210.852 244.144 210.264 244.144C209.484 244.144 208.782 243.982 208.158 243.658C207.546 243.334 207.06 242.854 206.7 242.218C206.352 241.582 206.178 240.814 206.178 239.914V234.082H208.212V239.608C208.212 240.496 208.434 241.18 208.878 241.66C209.322 242.128 209.928 242.362 210.696 242.362C211.464 242.362 212.07 242.128 212.514 241.66C212.97 241.18 213.198 240.496 213.198 239.608V234.082H215.25ZM217.273 239.032C217.273 238.012 217.477 237.118 217.885 236.35C218.305 235.57 218.881 234.97 219.613 234.55C220.345 234.13 221.185 233.92 222.133 233.92C223.333 233.92 224.323 234.208 225.103 234.784C225.895 235.348 226.429 236.158 226.705 237.214H224.491C224.311 236.722 224.023 236.338 223.627 236.062C223.231 235.786 222.733 235.648 222.133 235.648C221.293 235.648 220.621 235.948 220.117 236.548C219.625 237.136 219.379 237.964 219.379 239.032C219.379 240.1 219.625 240.934 220.117 241.534C220.621 242.134 221.293 242.434 222.133 242.434C223.321 242.434 224.107 241.912 224.491 240.868H226.705C226.417 241.876 225.877 242.68 225.085 243.28C224.293 243.868 223.309 244.162 222.133 244.162C221.185 244.162 220.345 243.952 219.613 243.532C218.881 243.1 218.305 242.5 217.885 241.732C217.477 240.952 217.273 240.052 217.273 239.032ZM228.066 239.032C228.066 238.012 228.27 237.118 228.678 236.35C229.098 235.57 229.674 234.97 230.406 234.55C231.138 234.13 231.978 233.92 232.926 233.92C234.126 233.92 235.116 234.208 235.896 234.784C236.688 235.348 237.222 236.158 237.498 237.214H235.284C235.104 236.722 234.816 236.338 234.42 236.062C234.024 235.786 233.526 235.648 232.926 235.648C232.086 235.648 231.414 235.948 230.91 236.548C230.418 237.136 230.172 237.964 230.172 239.032C230.172 240.1 230.418 240.934 230.91 241.534C231.414 242.134 232.086 242.434 232.926 242.434C234.114 242.434 234.9 241.912 235.284 240.868H237.498C237.21 241.876 236.67 242.68 235.878 243.28C235.086 243.868 234.102 244.162 232.926 244.162C231.978 244.162 231.138 243.952 230.406 243.532C229.674 243.1 229.098 242.5 228.678 241.732C228.27 240.952 228.066 240.052 228.066 239.032ZM248.633 238.798C248.633 239.17 248.609 239.506 248.561 239.806H240.983C241.043 240.598 241.337 241.234 241.865 241.714C242.393 242.194 243.041 242.434 243.809 242.434C244.913 242.434 245.693 241.972 246.149 241.048H248.363C248.063 241.96 247.517 242.71 246.725 243.298C245.945 243.874 244.973 244.162 243.809 244.162C242.861 244.162 242.009 243.952 241.253 243.532C240.509 243.1 239.921 242.5 239.489 241.732C239.069 240.952 238.859 240.052 238.859 239.032C238.859 238.012 239.063 237.118 239.471 236.35C239.891 235.57 240.473 234.97 241.217 234.55C241.973 234.13 242.837 233.92 243.809 233.92C244.745 233.92 245.579 234.124 246.311 234.532C247.043 234.94 247.613 235.516 248.021 236.26C248.429 236.992 248.633 237.838 248.633 238.798ZM246.491 238.15C246.479 237.394 246.209 236.788 245.681 236.332C245.153 235.876 244.499 235.648 243.719 235.648C243.011 235.648 242.405 235.876 241.901 236.332C241.397 236.776 241.097 237.382 241.001 238.15H246.491ZM254.253 244.162C253.473 244.162 252.771 244.024 252.147 243.748C251.535 243.46 251.049 243.076 250.689 242.596C250.329 242.104 250.137 241.558 250.113 240.958H252.237C252.273 241.378 252.471 241.732 252.831 242.02C253.203 242.296 253.665 242.434 254.217 242.434C254.793 242.434 255.237 242.326 255.549 242.11C255.873 241.882 256.035 241.594 256.035 241.246C256.035 240.874 255.855 240.598 255.495 240.418C255.147 240.238 254.589 240.04 253.821 239.824C253.077 239.62 252.471 239.422 252.003 239.23C251.535 239.038 251.127 238.744 250.779 238.348C250.443 237.952 250.275 237.43 250.275 236.782C250.275 236.254 250.431 235.774 250.743 235.342C251.055 234.898 251.499 234.55 252.075 234.298C252.663 234.046 253.335 233.92 254.091 233.92C255.219 233.92 256.125 234.208 256.809 234.784C257.505 235.348 257.877 236.122 257.925 237.106H255.873C255.837 236.662 255.657 236.308 255.333 236.044C255.009 235.78 254.571 235.648 254.019 235.648C253.479 235.648 253.065 235.75 252.777 235.954C252.489 236.158 252.345 236.428 252.345 236.764C252.345 237.028 252.441 237.25 252.633 237.43C252.825 237.61 253.059 237.754 253.335 237.862C253.611 237.958 254.019 238.084 254.559 238.24C255.279 238.432 255.867 238.63 256.323 238.834C256.791 239.026 257.193 239.314 257.529 239.698C257.865 240.082 258.039 240.592 258.051 241.228C258.051 241.792 257.895 242.296 257.583 242.74C257.271 243.184 256.827 243.532 256.251 243.784C255.687 244.036 255.021 244.162 254.253 244.162ZM263.868 244.162C263.088 244.162 262.386 244.024 261.762 243.748C261.15 243.46 260.664 243.076 260.304 242.596C259.944 242.104 259.752 241.558 259.728 240.958H261.852C261.888 241.378 262.086 241.732 262.446 242.02C262.818 242.296 263.28 242.434 263.832 242.434C264.408 242.434 264.852 242.326 265.164 242.11C265.488 241.882 265.65 241.594 265.65 241.246C265.65 240.874 265.47 240.598 265.11 240.418C264.762 240.238 264.204 240.04 263.436 239.824C262.692 239.62 262.086 239.422 261.618 239.23C261.15 239.038 260.742 238.744 260.394 238.348C260.058 237.952 259.89 237.43 259.89 236.782C259.89 236.254 260.046 235.774 260.358 235.342C260.67 234.898 261.114 234.55 261.69 234.298C262.278 234.046 262.95 233.92 263.706 233.92C264.834 233.92 265.74 234.208 266.424 234.784C267.12 235.348 267.492 236.122 267.54 237.106H265.488C265.452 236.662 265.272 236.308 264.948 236.044C264.624 235.78 264.186 235.648 263.634 235.648C263.094 235.648 262.68 235.75 262.392 235.954C262.104 236.158 261.96 236.428 261.96 236.764C261.96 237.028 262.056 237.25 262.248 237.43C262.44 237.61 262.674 237.754 262.95 237.862C263.226 237.958 263.634 238.084 264.174 238.24C264.894 238.432 265.482 238.63 265.938 238.834C266.406 239.026 266.808 239.314 267.144 239.698C267.48 240.082 267.654 240.592 267.666 241.228C267.666 241.792 267.51 242.296 267.198 242.74C266.886 243.184 266.442 243.532 265.866 243.784C265.302 244.036 264.636 244.162 263.868 244.162ZM274.041 235.756H272.205V244H270.135V235.756H268.965V234.082H270.135V233.38C270.135 232.24 270.435 231.412 271.035 230.896C271.647 230.368 272.601 230.104 273.897 230.104V231.814C273.273 231.814 272.835 231.934 272.583 232.174C272.331 232.402 272.205 232.804 272.205 233.38V234.082H274.041V235.756ZM284.842 234.082V244H282.79V242.83C282.466 243.238 282.04 243.562 281.512 243.802C280.996 244.03 280.444 244.144 279.856 244.144C279.076 244.144 278.374 243.982 277.75 243.658C277.138 243.334 276.652 242.854 276.292 242.218C275.944 241.582 275.77 240.814 275.77 239.914V234.082H277.804V239.608C277.804 240.496 278.026 241.18 278.47 241.66C278.914 242.128 279.52 242.362 280.288 242.362C281.056 242.362 281.662 242.128 282.106 241.66C282.562 241.18 282.79 240.496 282.79 239.608V234.082H284.842ZM289.601 230.68V244H287.549V230.68H289.601Z" fill="#013E5D"/>
</g>
<defs>
<filter id="filter0_d_1569_7071" x="133.1" y="172.104" width="218.502" height="138.058" filterUnits="userSpaceOnUse" color-interpolation-filters="sRGB">
<feFlood flood-opacity="0" result="BackgroundImageFix"/>
<feColorMatrix in="SourceAlpha" type="matrix" values="0 0 0 0 0 0 0 0 0 0 0 0 0 0 0 0 0 0 127 0" result="hardAlpha"/>
<feOffset dy="4"/>
<feGaussianBlur stdDeviation="31"/>
<feComposite in2="hardAlpha" operator="out"/>
<feColorMatrix type="matrix" values="0 0 0 0 0.600625 0 0 0 0 0.670375 0 0 0 0 0.775 0 0 0 0.18 0"/>
<feBlend mode="normal" in2="BackgroundImageFix" result="effect1_dropShadow_1569_7071"/>
<feBlend mode="normal" in="SourceGraphic" in2="effect1_dropShadow_1569_7071" result="shape"/>
</filter>
</defs>
</svg>
