<svg width="40" height="40" viewBox="0 0 40 40" fill="none" xmlns="http://www.w3.org/2000/svg">
<path d="M40 20C40 8.9543 31.0457 0 20 0C8.9543 0 0 8.9543 0 20C0 31.0457 8.9543 40 20 40C31.0457 40 40 31.0457 40 20Z" fill="#FEFEFE"/>
<path d="M29.0586 15.181C29.0676 15.392 29.0676 15.593 29.0676 15.805C29.0766 22.208 24.3726 29.5999 15.7686 29.5999C13.2316 29.5999 10.7406 28.842 8.60156 27.421C8.97156 27.469 9.34159 27.4879 9.71259 27.4879C11.8146 27.4879 13.8616 26.758 15.5186 25.405C13.5186 25.366 11.7586 24.0129 11.1476 22.0349C11.8516 22.1789 12.5736 22.1499 13.2596 21.9489C11.0826 21.5069 9.51758 19.52 9.50858 17.206C9.50858 17.187 9.50858 17.168 9.50858 17.149C10.1566 17.523 10.8886 17.734 11.6296 17.753C9.58258 16.333 8.94357 13.501 10.1846 11.283C12.5646 14.317 16.0656 16.15 19.8256 16.352C19.4456 14.672 19.9646 12.905 21.1776 11.715C23.0576 9.881 26.0206 9.977 27.7986 11.926C28.8456 11.715 29.8546 11.312 30.7716 10.745C30.4196 11.869 29.6876 12.819 28.7156 13.424C29.6416 13.309 30.5496 13.0489 31.4016 12.6649C30.7716 13.6449 29.9746 14.489 29.0586 15.181Z" fill="#1D9BF0"/>
</svg>
